<svg width="845" height="68" viewBox="0 0 845 68" fill="none" xmlns="http://www.w3.org/2000/svg">
<g clip-path="url(#clip0_1_2)">
<path d="M4.49682 60.219V2.03717H27.4514C31.8642 2.03717 35.6237 2.87998 38.7298 4.56558C41.8358 6.23225 44.2033 8.55233 45.832 11.5258C47.4798 14.4804 48.3036 17.8894 48.3036 21.7531C48.3036 25.6167 47.4703 29.0258 45.8036 31.9804C44.137 34.9349 41.7222 37.236 38.5593 38.8838C35.4154 40.5315 31.6086 41.3554 27.1389 41.3554H12.5082V31.4974H25.1502C27.5177 31.4974 29.4684 31.0902 31.0025 30.2758C32.5555 29.4425 33.7108 28.2966 34.4684 26.8383C35.2449 25.361 35.6332 23.666 35.6332 21.7531C35.6332 19.8213 35.2449 18.1357 34.4684 16.6963C33.7108 15.2379 32.5555 14.111 31.0025 13.3156C29.4495 12.5012 27.4798 12.094 25.0934 12.094H16.798V60.219H4.49682ZM56.0664 60.219V16.5826H67.7994V24.1963H68.2539C69.0494 21.4879 70.3846 19.4425 72.2596 18.0599C74.1346 16.6584 76.2937 15.9576 78.7369 15.9576C79.3429 15.9576 79.9963 15.9955 80.6971 16.0713C81.3979 16.147 82.0134 16.2512 82.5437 16.3838V27.1224C81.9755 26.9519 81.1895 26.8004 80.1857 26.6679C79.182 26.5353 78.2634 26.469 77.4301 26.469C75.6498 26.469 74.0588 26.8573 72.6573 27.6338C71.2748 28.3913 70.1763 29.4519 69.3619 30.8156C68.5664 32.1792 68.1687 33.7512 68.1687 35.5315V60.219H56.0664ZM106.656 61.0713C102.167 61.0713 98.3036 60.1622 95.065 58.344C91.8453 56.5069 89.3642 53.9122 87.6218 50.5599C85.8794 47.1887 85.0082 43.2019 85.0082 38.5997C85.0082 34.111 85.8794 30.1716 87.6218 26.7815C89.3642 23.3913 91.8169 20.7493 94.9798 18.8554C98.1616 16.9614 101.893 16.0144 106.173 16.0144C109.052 16.0144 111.732 16.4785 114.213 17.4065C116.713 18.3156 118.891 19.6887 120.747 21.5258C122.622 23.3629 124.08 25.6735 125.122 28.4576C126.163 31.2228 126.684 34.4614 126.684 38.1735V41.4974H89.8377V33.9974H115.292C115.292 32.255 114.913 30.7114 114.156 29.3667C113.398 28.022 112.347 26.9709 111.003 26.2133C109.677 25.4368 108.133 25.0485 106.372 25.0485C104.535 25.0485 102.906 25.4747 101.485 26.3269C100.084 27.1603 98.9855 28.2872 98.19 29.7076C97.3945 31.1091 96.9874 32.6716 96.9684 34.3951V41.5258C96.9684 43.6849 97.3661 45.5504 98.1616 47.1224C98.976 48.6944 100.122 49.9065 101.599 50.7588C103.076 51.611 104.828 52.0372 106.855 52.0372C108.199 52.0372 109.431 51.8478 110.548 51.469C111.665 51.0902 112.622 50.522 113.417 49.7644C114.213 49.0069 114.819 48.0788 115.235 46.9804L126.429 47.719C125.86 50.4084 124.696 52.7569 122.934 54.7644C121.192 56.7531 118.938 58.3061 116.173 59.4235C113.427 60.522 110.254 61.0713 106.656 61.0713ZM154.298 61.0713C149.828 61.0713 145.984 60.1243 142.764 58.2304C139.563 56.3175 137.101 53.666 135.378 50.2758C133.673 46.8857 132.821 42.9841 132.821 38.5713C132.821 34.1016 133.682 30.1811 135.406 26.8099C137.148 23.4198 139.62 20.7777 142.821 18.8838C146.021 16.9709 149.828 16.0144 154.241 16.0144C158.048 16.0144 161.381 16.7057 164.241 18.0883C167.101 19.4709 169.364 21.4122 171.031 23.9122C172.698 26.4122 173.616 29.3478 173.787 32.719H162.366C162.044 30.541 161.192 28.7891 159.809 27.4633C158.446 26.1186 156.656 25.4463 154.44 25.4463C152.565 25.4463 150.927 25.9576 149.525 26.9804C148.143 27.9841 147.063 29.4519 146.287 31.3838C145.51 33.3156 145.122 35.6546 145.122 38.4008C145.122 41.1849 145.501 43.5523 146.258 45.5031C147.035 47.4538 148.124 48.9406 149.525 49.9633C150.927 50.986 152.565 51.4974 154.44 51.4974C155.823 51.4974 157.063 51.2133 158.162 50.6451C159.279 50.0769 160.198 49.2531 160.917 48.1735C161.656 47.0751 162.139 45.7588 162.366 44.2247H173.787C173.597 47.558 172.688 50.4936 171.059 53.0315C169.449 55.5504 167.224 57.5201 164.383 58.9406C161.542 60.361 158.181 61.0713 154.298 61.0713ZM193.637 34.9917V60.219H181.535V2.03717H193.297V24.2815H193.808C194.793 21.7057 196.384 19.6887 198.581 18.2304C200.778 16.7531 203.533 16.0144 206.848 16.0144C209.878 16.0144 212.52 16.6773 214.774 18.0031C217.047 19.3099 218.808 21.1944 220.058 23.6565C221.327 26.0997 221.952 29.0258 221.933 32.4349V60.219H209.831V34.594C209.85 31.9046 209.168 29.8118 207.785 28.3156C206.422 26.8194 204.509 26.0713 202.047 26.0713C200.399 26.0713 198.94 26.4216 197.672 27.1224C196.422 27.8232 195.437 28.8459 194.717 30.1906C194.016 31.5163 193.656 33.1167 193.637 34.9917ZM243.9 61.0429C241.116 61.0429 238.635 60.5599 236.457 59.594C234.279 58.6091 232.556 57.1603 231.287 55.2474C230.037 53.3156 229.412 50.9103 229.412 48.0315C229.412 45.6073 229.857 43.5713 230.747 41.9235C231.637 40.2758 232.849 38.9501 234.383 37.9463C235.917 36.9425 237.66 36.1849 239.61 35.6735C241.58 35.1622 243.645 34.8023 245.804 34.594C248.342 34.3288 250.387 34.0826 251.94 33.8554C253.493 33.6091 254.62 33.2493 255.321 32.7758C256.021 32.3023 256.372 31.6016 256.372 30.6735V30.5031C256.372 28.7038 255.804 27.3118 254.667 26.3269C253.55 25.3421 251.959 24.8497 249.895 24.8497C247.717 24.8497 245.984 25.3326 244.696 26.2985C243.408 27.2455 242.556 28.4387 242.139 29.8781L230.946 28.969C231.514 26.3175 232.631 24.0258 234.298 22.094C235.965 20.1432 238.114 18.647 240.747 17.6054C243.398 16.5448 246.467 16.0144 249.951 16.0144C252.376 16.0144 254.696 16.2985 256.912 16.8667C259.146 17.4349 261.126 18.3156 262.849 19.5088C264.592 20.7019 265.965 22.236 266.968 24.111C267.972 25.9671 268.474 28.1925 268.474 30.7872V60.219H256.997V54.1679H256.656C255.955 55.5315 255.018 56.7341 253.843 57.7758C252.669 58.7985 251.258 59.6035 249.61 60.1906C247.963 60.7588 246.059 61.0429 243.9 61.0429ZM247.366 52.6906C249.146 52.6906 250.718 52.3402 252.082 51.6394C253.446 50.9198 254.516 49.9538 255.292 48.7417C256.069 47.5296 256.457 46.1565 256.457 44.6224V39.9917C256.078 40.2379 255.557 40.4652 254.895 40.6735C254.251 40.8629 253.521 41.0429 252.707 41.2133C251.893 41.3648 251.078 41.5069 250.264 41.6394C249.449 41.7531 248.711 41.8573 248.048 41.9519C246.628 42.1603 245.387 42.4917 244.326 42.9463C243.266 43.4008 242.442 44.0163 241.855 44.7929C241.268 45.5504 240.974 46.4974 240.974 47.6338C240.974 49.2815 241.571 50.541 242.764 51.4122C243.976 52.2644 245.51 52.6906 247.366 52.6906ZM277.863 60.219V16.5826H289.596V24.1963H290.051C290.846 21.4879 292.181 19.4425 294.056 18.0599C295.931 16.6584 298.091 15.9576 300.534 15.9576C301.14 15.9576 301.793 15.9955 302.494 16.0713C303.195 16.147 303.81 16.2512 304.341 16.3838V27.1224C303.772 26.9519 302.986 26.8004 301.983 26.6679C300.979 26.5353 300.06 26.469 299.227 26.469C297.447 26.469 295.856 26.8573 294.454 27.6338C293.072 28.3913 291.973 29.4519 291.159 30.8156C290.363 32.1792 289.966 33.7512 289.966 35.5315V60.219H277.863ZM335.995 16.5826V25.6735H309.717V16.5826H335.995ZM315.683 6.12808H327.785V46.8099C327.785 47.9273 327.956 48.7985 328.297 49.4235C328.637 50.0296 329.111 50.4557 329.717 50.7019C330.342 50.9482 331.062 51.0713 331.876 51.0713C332.444 51.0713 333.012 51.0239 333.581 50.9292C334.149 50.8156 334.584 50.7304 334.887 50.6735L336.791 59.6792C336.185 59.8686 335.333 60.0864 334.234 60.3326C333.136 60.5978 331.8 60.7588 330.228 60.8156C327.312 60.9292 324.755 60.541 322.558 59.6508C320.38 58.7607 318.685 57.3781 317.473 55.5031C316.261 53.6281 315.664 51.2607 315.683 48.4008V6.12808ZM394.184 18.7701C393.957 16.4785 392.982 14.6982 391.258 13.4292C389.535 12.1603 387.196 11.5258 384.241 11.5258C382.234 11.5258 380.538 11.8099 379.156 12.3781C377.773 12.9273 376.713 13.6944 375.974 14.6792C375.254 15.6641 374.895 16.7815 374.895 18.0315C374.857 19.0732 375.074 19.9823 375.548 20.7588C376.04 21.5353 376.713 22.2076 377.565 22.7758C378.417 23.3251 379.402 23.808 380.52 24.2247C381.637 24.6224 382.83 24.9633 384.099 25.2474L389.326 26.4974C391.864 27.0656 394.194 27.8232 396.315 28.7701C398.436 29.7171 400.273 30.8819 401.826 32.2644C403.379 33.647 404.582 35.2758 405.434 37.1508C406.306 39.0258 406.751 41.1754 406.77 43.5997C406.751 47.1603 405.842 50.2474 404.042 52.861C402.262 55.4557 399.686 57.4728 396.315 58.9122C392.963 60.3326 388.919 61.0429 384.184 61.0429C379.487 61.0429 375.396 60.3232 371.912 58.8838C368.446 57.4444 365.737 55.3137 363.787 52.4917C361.855 49.6508 360.842 46.1376 360.747 41.9519H372.65C372.783 43.9027 373.342 45.5315 374.326 46.8383C375.33 48.1262 376.665 49.1016 378.332 49.7644C380.018 50.4084 381.921 50.7304 384.042 50.7304C386.126 50.7304 387.934 50.4273 389.468 49.8213C391.021 49.2152 392.224 48.3724 393.076 47.2929C393.929 46.2133 394.355 44.9728 394.355 43.5713C394.355 42.2644 393.967 41.166 393.19 40.2758C392.432 39.3857 391.315 38.6281 389.838 38.0031C388.379 37.3781 386.59 36.8099 384.468 36.2985L378.133 34.7076C373.228 33.5144 369.355 31.6489 366.514 29.111C363.673 26.5732 362.262 23.1546 362.281 18.8554C362.262 15.3326 363.199 12.255 365.093 9.6224C367.006 6.98983 369.629 4.9349 372.963 3.45763C376.296 1.98036 380.084 1.24172 384.326 1.24172C388.645 1.24172 392.413 1.98036 395.633 3.45763C398.872 4.9349 401.391 6.98983 403.19 9.6224C404.989 12.255 405.917 15.3042 405.974 18.7701H394.184ZM434.532 61.0713C430.119 61.0713 426.303 60.1338 423.083 58.2588C419.883 56.3648 417.411 53.7323 415.669 50.361C413.926 46.9709 413.055 43.041 413.055 38.5713C413.055 34.0637 413.926 30.1243 415.669 26.7531C417.411 23.3629 419.883 20.7304 423.083 18.8554C426.303 16.9614 430.119 16.0144 434.532 16.0144C438.945 16.0144 442.752 16.9614 445.953 18.8554C449.172 20.7304 451.654 23.3629 453.396 26.7531C455.138 30.1243 456.01 34.0637 456.01 38.5713C456.01 43.041 455.138 46.9709 453.396 50.361C451.654 53.7323 449.172 56.3648 445.953 58.2588C442.752 60.1338 438.945 61.0713 434.532 61.0713ZM434.589 51.6963C436.597 51.6963 438.273 51.1281 439.618 49.9917C440.962 48.8364 441.976 47.2644 442.657 45.2758C443.358 43.2872 443.708 41.0239 443.708 38.486C443.708 35.9482 443.358 33.6849 442.657 31.6963C441.976 29.7076 440.962 28.1357 439.618 26.9804C438.273 25.8251 436.597 25.2474 434.589 25.2474C432.563 25.2474 430.858 25.8251 429.476 26.9804C428.112 28.1357 427.08 29.7076 426.379 31.6963C425.697 33.6849 425.356 35.9482 425.356 38.486C425.356 41.0239 425.697 43.2872 426.379 45.2758C427.08 47.2644 428.112 48.8364 429.476 49.9917C430.858 51.1281 432.563 51.6963 434.589 51.6963ZM487.345 16.5826V25.6735H460.413V16.5826H487.345ZM466.578 60.219V13.4292C466.578 10.2663 467.193 7.64323 468.424 5.5599C469.674 3.47657 471.379 1.91407 473.538 0.872399C475.697 -0.169267 478.15 -0.690101 480.896 -0.690101C482.752 -0.690101 484.447 -0.548054 485.981 -0.263961C487.534 0.0201292 488.69 0.275811 489.447 0.503084L487.288 9.59399C486.815 9.44248 486.227 9.30043 485.527 9.16785C484.845 9.03528 484.144 8.96899 483.424 8.96899C481.644 8.96899 480.404 9.38566 479.703 10.219C479.002 11.0334 478.652 12.1792 478.652 13.6565V60.219H466.578ZM517.949 16.5826V25.6735H491.67V16.5826H517.949ZM497.636 6.12808H509.738V46.8099C509.738 47.9273 509.909 48.7985 510.25 49.4235C510.591 50.0296 511.064 50.4557 511.67 50.7019C512.295 50.9482 513.015 51.0713 513.829 51.0713C514.397 51.0713 514.966 51.0239 515.534 50.9292C516.102 50.8156 516.538 50.7304 516.841 50.6735L518.744 59.6792C518.138 59.8686 517.286 60.0864 516.187 60.3326C515.089 60.5978 513.753 60.7588 512.181 60.8156C509.265 60.9292 506.708 60.541 504.511 59.6508C502.333 58.7607 500.638 57.3781 499.426 55.5031C498.214 53.6281 497.617 51.2607 497.636 48.4008V6.12808ZM534.44 60.219L522.565 16.5826H534.809L541.571 45.9008H541.968L549.014 16.5826H561.031L568.19 45.7304H568.559L575.207 16.5826H587.423L575.576 60.219H562.764L555.264 32.7758H554.724L547.224 60.219H534.44ZM606.322 61.0429C603.538 61.0429 601.057 60.5599 598.879 59.594C596.701 58.6091 594.977 57.1603 593.708 55.2474C592.458 53.3156 591.833 50.9103 591.833 48.0315C591.833 45.6073 592.279 43.5713 593.169 41.9235C594.059 40.2758 595.271 38.9501 596.805 37.9463C598.339 36.9425 600.082 36.1849 602.032 35.6735C604.002 35.1622 606.066 34.8023 608.226 34.594C610.763 34.3288 612.809 34.0826 614.362 33.8554C615.915 33.6091 617.042 33.2493 617.743 32.7758C618.443 32.3023 618.794 31.6016 618.794 30.6735V30.5031C618.794 28.7038 618.226 27.3118 617.089 26.3269C615.972 25.3421 614.381 24.8497 612.316 24.8497C610.138 24.8497 608.405 25.3326 607.118 26.2985C605.83 27.2455 604.977 28.4387 604.561 29.8781L593.368 28.969C593.936 26.3175 595.053 24.0258 596.72 22.094C598.386 20.1432 600.536 18.647 603.169 17.6054C605.82 16.5448 608.888 16.0144 612.373 16.0144C614.797 16.0144 617.118 16.2985 619.333 16.8667C621.568 17.4349 623.547 18.3156 625.271 19.5088C627.013 20.7019 628.386 22.236 629.39 24.111C630.394 25.9671 630.896 28.1925 630.896 30.7872V60.219H619.419V54.1679H619.078C618.377 55.5315 617.44 56.7341 616.265 57.7758C615.091 58.7985 613.68 59.6035 612.032 60.1906C610.385 60.7588 608.481 61.0429 606.322 61.0429ZM609.788 52.6906C611.568 52.6906 613.14 52.3402 614.504 51.6394C615.868 50.9198 616.938 49.9538 617.714 48.7417C618.491 47.5296 618.879 46.1565 618.879 44.6224V39.9917C618.5 40.2379 617.979 40.4652 617.316 40.6735C616.672 40.8629 615.943 41.0429 615.129 41.2133C614.315 41.3648 613.5 41.5069 612.686 41.6394C611.871 41.7531 611.133 41.8573 610.47 41.9519C609.049 42.1603 607.809 42.4917 606.748 42.9463C605.688 43.4008 604.864 44.0163 604.277 44.7929C603.69 45.5504 603.396 46.4974 603.396 47.6338C603.396 49.2815 603.993 50.541 605.186 51.4122C606.398 52.2644 607.932 52.6906 609.788 52.6906ZM640.285 60.219V16.5826H652.018V24.1963H652.473C653.268 21.4879 654.603 19.4425 656.478 18.0599C658.353 16.6584 660.512 15.9576 662.956 15.9576C663.562 15.9576 664.215 15.9955 664.916 16.0713C665.617 16.147 666.232 16.2512 666.762 16.3838V27.1224C666.194 26.9519 665.408 26.8004 664.404 26.6679C663.401 26.5353 662.482 26.469 661.649 26.469C659.869 26.469 658.278 26.8573 656.876 27.6338C655.494 28.3913 654.395 29.4519 653.581 30.8156C652.785 32.1792 652.387 33.7512 652.387 35.5315V60.219H640.285ZM690.875 61.0713C686.386 61.0713 682.522 60.1622 679.284 58.344C676.064 56.5069 673.583 53.9122 671.841 50.5599C670.098 47.1887 669.227 43.2019 669.227 38.5997C669.227 34.111 670.098 30.1716 671.841 26.7815C673.583 23.3913 676.036 20.7493 679.199 18.8554C682.38 16.9614 686.111 16.0144 690.392 16.0144C693.27 16.0144 695.95 16.4785 698.431 17.4065C700.931 18.3156 703.11 19.6887 704.966 21.5258C706.841 23.3629 708.299 25.6735 709.341 28.4576C710.382 31.2228 710.903 34.4614 710.903 38.1735V41.4974H674.056V33.9974H699.511C699.511 32.255 699.132 30.7114 698.375 29.3667C697.617 28.022 696.566 26.9709 695.221 26.2133C693.895 25.4368 692.352 25.0485 690.591 25.0485C688.753 25.0485 687.125 25.4747 685.704 26.3269C684.303 27.1603 683.204 28.2872 682.409 29.7076C681.613 31.1091 681.206 32.6716 681.187 34.3951V41.5258C681.187 43.6849 681.585 45.5504 682.38 47.1224C683.195 48.6944 684.341 49.9065 685.818 50.7588C687.295 51.611 689.047 52.0372 691.074 52.0372C692.418 52.0372 693.649 51.8478 694.767 51.469C695.884 51.0902 696.841 50.522 697.636 49.7644C698.431 49.0069 699.038 48.0788 699.454 46.9804L710.647 47.719C710.079 50.4084 708.914 52.7569 707.153 54.7644C705.411 56.7531 703.157 58.3061 700.392 59.4235C697.645 60.522 694.473 61.0713 690.875 61.0713ZM749.845 2.03717V60.219H737.544V2.03717H749.845ZM771.841 34.9917V60.219H759.738V16.5826H771.272V24.2815H771.784C772.75 21.7436 774.369 19.736 776.642 18.2588C778.914 16.7626 781.67 16.0144 784.909 16.0144C787.939 16.0144 790.581 16.6773 792.835 18.0031C795.089 19.3288 796.841 21.2228 798.091 23.6849C799.341 26.1281 799.966 29.0448 799.966 32.4349V60.219H787.863V34.594C787.882 31.9235 787.2 29.8402 785.818 28.344C784.435 26.8288 782.532 26.0713 780.108 26.0713C778.479 26.0713 777.039 26.4216 775.789 27.1224C774.558 27.8232 773.592 28.8459 772.892 30.1906C772.21 31.5163 771.86 33.1167 771.841 34.9917ZM829.22 61.0713C824.75 61.0713 820.905 60.1243 817.686 58.2304C814.485 56.3175 812.023 53.666 810.299 50.2758C808.595 46.8857 807.743 42.9841 807.743 38.5713C807.743 34.1016 808.604 30.1811 810.328 26.8099C812.07 23.4198 814.542 20.7777 817.743 18.8838C820.943 16.9709 824.75 16.0144 829.163 16.0144C832.97 16.0144 836.303 16.7057 839.163 18.0883C842.023 19.4709 844.286 21.4122 845.953 23.9122C847.619 26.4122 848.538 29.3478 848.708 32.719H837.288C836.966 30.541 836.114 28.7891 834.731 27.4633C833.368 26.1186 831.578 25.4463 829.362 25.4463C827.487 25.4463 825.849 25.9576 824.447 26.9804C823.065 27.9841 821.985 29.4519 821.208 31.3838C820.432 33.3156 820.044 35.6546 820.044 38.4008C820.044 41.1849 820.422 43.5523 821.18 45.5031C821.957 47.4538 823.046 48.9406 824.447 49.9633C825.849 50.986 827.487 51.4974 829.362 51.4974C830.744 51.4974 831.985 51.2133 833.083 50.6451C834.201 50.0769 835.119 49.2531 835.839 48.1735C836.578 47.0751 837.061 45.7588 837.288 44.2247H848.708C848.519 47.558 847.61 50.4936 845.981 53.0315C844.371 55.5504 842.146 57.5201 839.305 58.9406C836.464 60.361 833.102 61.0713 829.22 61.0713ZM863.531 60.9576C861.656 60.9576 860.046 60.2948 858.701 58.969C857.376 57.6243 856.713 56.0144 856.713 54.1394C856.713 52.2834 857.376 50.6925 858.701 49.3667C860.046 48.041 861.656 47.3781 863.531 47.3781C865.349 47.3781 866.94 48.041 868.304 49.3667C869.667 50.6925 870.349 52.2834 870.349 54.1394C870.349 55.3894 870.027 56.5353 869.383 57.5769C868.758 58.5997 867.934 59.4235 866.912 60.0485C865.889 60.6546 864.762 60.9576 863.531 60.9576Z" fill="#005580"/>
</g>
<defs>
<clipPath id="clip0_1_2">
<rect width="844.171" height="67.263" fill="white"/>
</clipPath>
</defs>
</svg>
